<svg xmlns="http://www.w3.org/2000/svg" data-name="Layer 1" viewBox="0 0 80 100" x="0px" y="0px"><path d="M24.76,22.64V12.4c0-3.18,2.59-5.77,5.77-5.77,1.44,0,2.82,.54,3.89,1.51,1.07,1,1.72,2.33,1.85,3.76l.87,10.08c2.12-1.88,3.39-4.59,3.39-7.48,0-5.51-4.49-10-10-10s-10,4.49-10,10c0,3.29,1.62,6.29,4.23,8.14Z"/><path d="M55.98,69.53c0-.14,.03-.28,.09-.41l4.48-9.92v-18.37c0-1.81-1.08-3.48-2.76-4.26-6.75-3.13-13.8-4.84-20.95-5.08-.51-.01-.92-.41-.97-.91l-1.6-18.5c-.08-.94-.51-1.82-1.2-2.46-.7-.63-1.6-.99-2.54-.99-2.08,0-3.77,1.69-3.77,3.77V48.48h-2v-13.32c-2.61,.46-4.69,2.65-4.91,5.36-.56,6.79-.53,14.06,.08,21.62,.28,3.44,2.42,6.52,5.58,8.05l4.49,2.18c.35,.17,.56,.52,.56,.9v2.23h25.42v-5.97Z"/><text x="0" y="95" fill="#000000" font-size="5px" font-weight="bold" font-family="'Helvetica Neue', Helvetica, Arial-Unicode, Arial, Sans-serif">Created by Lagot Design</text><text x="0" y="100" fill="#000000" font-size="5px" font-weight="bold" font-family="'Helvetica Neue', Helvetica, Arial-Unicode, Arial, Sans-serif">from the Noun Project</text></svg>